<mxfile host="Electron" modified="2024-01-31T04:03:40.255Z" agent="Mozilla/5.0 (Windows NT 10.0; Win64; x64) AppleWebKit/537.36 (KHTML, like Gecko) draw.io/23.0.2 Chrome/120.0.6099.109 Electron/28.1.0 Safari/537.36" etag="4zdqmmRfsyr624LxCkuB" version="23.0.2" type="device">
  <diagram name="第 1 页" id="Pp0dbtiKh_Cfbk6qatD0">
    <mxGraphModel dx="205" dy="454" grid="1" gridSize="10" guides="1" tooltips="1" connect="1" arrows="1" fold="1" page="1" pageScale="1" pageWidth="827" pageHeight="1169" math="0" shadow="0">
      <root>
        <mxCell id="0" />
        <mxCell id="1" parent="0" />
        <mxCell id="MzcqUaKDSxdU4G9yTcPs-10" style="rounded=0;orthogonalLoop=1;jettySize=auto;html=1;endArrow=none;endFill=0;" edge="1" parent="1" source="MzcqUaKDSxdU4G9yTcPs-1" target="MzcqUaKDSxdU4G9yTcPs-2">
          <mxGeometry relative="1" as="geometry" />
        </mxCell>
        <mxCell id="MzcqUaKDSxdU4G9yTcPs-11" style="edgeStyle=none;shape=connector;rounded=0;orthogonalLoop=1;jettySize=auto;html=1;labelBackgroundColor=default;strokeColor=default;align=center;verticalAlign=middle;fontFamily=Helvetica;fontSize=11;fontColor=default;endArrow=none;endFill=0;" edge="1" parent="1" source="MzcqUaKDSxdU4G9yTcPs-1" target="MzcqUaKDSxdU4G9yTcPs-3">
          <mxGeometry relative="1" as="geometry" />
        </mxCell>
        <mxCell id="MzcqUaKDSxdU4G9yTcPs-1" value="1" style="ellipse;whiteSpace=wrap;html=1;fontFamily=Times New Roman;fontSize=19;fillColor=none;strokeColor=none;" vertex="1" parent="1">
          <mxGeometry x="239" y="80" width="40" height="40" as="geometry" />
        </mxCell>
        <mxCell id="MzcqUaKDSxdU4G9yTcPs-12" style="edgeStyle=none;shape=connector;rounded=0;orthogonalLoop=1;jettySize=auto;html=1;labelBackgroundColor=default;strokeColor=default;align=center;verticalAlign=middle;fontFamily=Helvetica;fontSize=11;fontColor=default;endArrow=none;endFill=0;" edge="1" parent="1" source="MzcqUaKDSxdU4G9yTcPs-2" target="MzcqUaKDSxdU4G9yTcPs-8">
          <mxGeometry relative="1" as="geometry" />
        </mxCell>
        <mxCell id="MzcqUaKDSxdU4G9yTcPs-13" style="edgeStyle=none;shape=connector;rounded=0;orthogonalLoop=1;jettySize=auto;html=1;labelBackgroundColor=default;strokeColor=default;align=center;verticalAlign=middle;fontFamily=Helvetica;fontSize=11;fontColor=default;endArrow=none;endFill=0;" edge="1" parent="1" source="MzcqUaKDSxdU4G9yTcPs-2" target="MzcqUaKDSxdU4G9yTcPs-6">
          <mxGeometry relative="1" as="geometry" />
        </mxCell>
        <mxCell id="MzcqUaKDSxdU4G9yTcPs-2" value="3" style="ellipse;whiteSpace=wrap;html=1;fontFamily=Times New Roman;fontSize=19;fillColor=none;strokeColor=none;" vertex="1" parent="1">
          <mxGeometry x="180" y="140" width="40" height="40" as="geometry" />
        </mxCell>
        <mxCell id="MzcqUaKDSxdU4G9yTcPs-14" style="edgeStyle=none;shape=connector;rounded=0;orthogonalLoop=1;jettySize=auto;html=1;labelBackgroundColor=default;strokeColor=default;align=center;verticalAlign=middle;fontFamily=Helvetica;fontSize=11;fontColor=default;endArrow=none;endFill=0;" edge="1" parent="1" source="MzcqUaKDSxdU4G9yTcPs-3" target="MzcqUaKDSxdU4G9yTcPs-7">
          <mxGeometry relative="1" as="geometry" />
        </mxCell>
        <mxCell id="MzcqUaKDSxdU4G9yTcPs-15" style="edgeStyle=none;shape=connector;rounded=0;orthogonalLoop=1;jettySize=auto;html=1;labelBackgroundColor=default;strokeColor=default;align=center;verticalAlign=middle;fontFamily=Helvetica;fontSize=11;fontColor=default;endArrow=none;endFill=0;" edge="1" parent="1" source="MzcqUaKDSxdU4G9yTcPs-3" target="MzcqUaKDSxdU4G9yTcPs-9">
          <mxGeometry relative="1" as="geometry" />
        </mxCell>
        <mxCell id="MzcqUaKDSxdU4G9yTcPs-3" value="2" style="ellipse;whiteSpace=wrap;html=1;fontFamily=Times New Roman;fontSize=19;fillColor=none;strokeColor=none;" vertex="1" parent="1">
          <mxGeometry x="300" y="140" width="40" height="40" as="geometry" />
        </mxCell>
        <mxCell id="MzcqUaKDSxdU4G9yTcPs-6" value="7" style="ellipse;whiteSpace=wrap;html=1;fontFamily=Times New Roman;fontSize=19;fillColor=none;strokeColor=none;" vertex="1" parent="1">
          <mxGeometry x="210" y="200" width="40" height="40" as="geometry" />
        </mxCell>
        <mxCell id="MzcqUaKDSxdU4G9yTcPs-7" value="5" style="ellipse;whiteSpace=wrap;html=1;fontFamily=Times New Roman;fontSize=19;fillColor=none;strokeColor=none;" vertex="1" parent="1">
          <mxGeometry x="270" y="200" width="40" height="40" as="geometry" />
        </mxCell>
        <mxCell id="MzcqUaKDSxdU4G9yTcPs-18" style="edgeStyle=none;shape=connector;rounded=0;orthogonalLoop=1;jettySize=auto;html=1;labelBackgroundColor=default;strokeColor=default;align=center;verticalAlign=middle;fontFamily=Helvetica;fontSize=11;fontColor=default;endArrow=none;endFill=0;" edge="1" parent="1" source="MzcqUaKDSxdU4G9yTcPs-8" target="MzcqUaKDSxdU4G9yTcPs-16">
          <mxGeometry relative="1" as="geometry" />
        </mxCell>
        <mxCell id="MzcqUaKDSxdU4G9yTcPs-19" style="edgeStyle=none;shape=connector;rounded=0;orthogonalLoop=1;jettySize=auto;html=1;labelBackgroundColor=default;strokeColor=default;align=center;verticalAlign=middle;fontFamily=Helvetica;fontSize=11;fontColor=default;endArrow=none;endFill=0;" edge="1" parent="1" source="MzcqUaKDSxdU4G9yTcPs-8" target="MzcqUaKDSxdU4G9yTcPs-17">
          <mxGeometry relative="1" as="geometry" />
        </mxCell>
        <mxCell id="MzcqUaKDSxdU4G9yTcPs-8" value="6" style="ellipse;whiteSpace=wrap;html=1;fontFamily=Times New Roman;fontSize=19;fillColor=none;strokeColor=none;" vertex="1" parent="1">
          <mxGeometry x="150" y="200" width="40" height="40" as="geometry" />
        </mxCell>
        <mxCell id="MzcqUaKDSxdU4G9yTcPs-9" value="4" style="ellipse;whiteSpace=wrap;html=1;fontFamily=Times New Roman;fontSize=19;fillColor=none;strokeColor=none;" vertex="1" parent="1">
          <mxGeometry x="330" y="200" width="40" height="40" as="geometry" />
        </mxCell>
        <mxCell id="MzcqUaKDSxdU4G9yTcPs-16" value="9" style="ellipse;whiteSpace=wrap;html=1;fontFamily=Times New Roman;fontSize=19;fillColor=none;strokeColor=none;" vertex="1" parent="1">
          <mxGeometry x="120" y="260" width="40" height="40" as="geometry" />
        </mxCell>
        <mxCell id="MzcqUaKDSxdU4G9yTcPs-17" value="8" style="ellipse;whiteSpace=wrap;html=1;fontFamily=Times New Roman;fontSize=19;fillColor=none;strokeColor=none;" vertex="1" parent="1">
          <mxGeometry x="180" y="260" width="40" height="40" as="geometry" />
        </mxCell>
      </root>
    </mxGraphModel>
  </diagram>
</mxfile>
